<svg width="30" height="30" viewBox="0 0 30 30" fill="none" xmlns="http://www.w3.org/2000/svg">
<g clip-path="url(#clip0_6161_110)">
<path d="M20 27.5338V23.9463C20.0469 23.3502 19.9663 22.751 19.7637 22.1885C19.5612 21.626 19.2411 21.113 18.825 20.6838C22.75 20.2463 26.875 18.7587 26.875 11.9338C26.8747 10.1885 26.2033 8.51025 25 7.24625C25.5698 5.71938 25.5295 4.03169 24.8875 2.53375C24.8875 2.53375 23.4125 2.09625 20 4.38375C17.1348 3.60848 14.1151 3.60848 11.25 4.38375C7.83747 2.09625 6.36247 2.53375 6.36247 2.53375C5.72044 4.03169 5.68015 5.71938 6.24997 7.24625C5.03763 8.51963 4.36563 10.2131 4.37497 11.9713C4.37497 18.7463 8.49997 20.2338 12.425 20.7213C12.0137 21.1462 11.6966 21.653 11.4941 22.2086C11.2917 22.7643 11.2085 23.3563 11.25 23.9463V27.5338" stroke="white" stroke-width="2" stroke-linecap="round" stroke-linejoin="round"/>
<path d="M11.25 25.0338C7.5 26.25 4.375 25.0338 2.5 21.2838" stroke="white" stroke-width="2" stroke-linecap="round" stroke-linejoin="round"/>
</g>
<defs>
<clipPath id="clip0_6161_110">
<rect width="30" height="30" fill="white"/>
</clipPath>
</defs>
</svg>
