<svg width="46" height="46" viewBox="0 0 46 46" fill="none" xmlns="http://www.w3.org/2000/svg">
<g clip-path="url(#clip0_6174_586)">
<g clip-path="url(#clip1_6174_586)">
<path d="M29.0722 18.2935L29.462 25.7315C29.4682 25.9084 29.5096 26.0823 29.5837 26.2431C29.6578 26.4039 29.7632 26.5483 29.8938 26.6679C30.0243 26.7875 30.1774 26.8799 30.344 26.9397C30.5106 26.9996 30.6875 27.0256 30.8643 27.0163C31.0411 27.0071 31.2143 26.9627 31.3738 26.8858C31.5332 26.8089 31.6758 26.701 31.7931 26.5684C31.9104 26.4358 32.0001 26.2811 32.0571 26.1135C32.114 25.9458 32.1369 25.7685 32.1246 25.5919L31.5663 14.9396C31.5478 14.5865 31.3898 14.2553 31.127 14.0187C30.8643 13.7822 30.5183 13.6596 30.1653 13.6781L19.5129 14.2363C19.1642 14.2607 18.8389 14.4211 18.6073 14.6829C18.3756 14.9447 18.2561 15.2871 18.2743 15.6362C18.2926 15.9853 18.4473 16.3133 18.7051 16.5495C18.9629 16.7857 19.3031 16.9112 19.6525 16.8989L27.0905 16.5091L15.2754 29.6311C15.0388 29.8939 14.9163 30.2399 14.9348 30.593C14.9533 30.9462 15.1113 31.2775 15.3741 31.5141C15.6369 31.7507 15.9829 31.8733 16.336 31.8548C16.6892 31.8363 17.0205 31.6782 17.2571 31.4154L29.0722 18.2935Z" fill="#ACA7E9"/>
</g>
</g>
<defs>
<clipPath id="clip0_6174_586">
<path d="M0.807129 22.5964C0.807129 10.1168 10.9239 0 23.4035 0C35.8832 0 45.9999 10.1168 45.9999 22.5964C45.9999 35.0761 35.8832 45.1928 23.4035 45.1928C10.9239 45.1928 0.807129 35.0761 0.807129 22.5964Z" fill="white"/>
</clipPath>
<clipPath id="clip1_6174_586">
<rect width="32" height="32" fill="white" transform="translate(24.5879 45.1928) rotate(-138)"/>
</clipPath>
</defs>
</svg>
