<svg width="42" height="42" viewBox="0 0 42 42" fill="none" xmlns="http://www.w3.org/2000/svg">
<path d="M0.421875 19.8024C0.421875 9.09898 9.09898 0.421875 19.8024 0.421875C30.5059 0.421875 39.183 9.09898 39.183 19.8024C39.183 20.6275 39.1322 21.4392 39.0306 22.2374C38.6459 22.0779 38.239 21.9106 37.81 21.7356C34.9493 20.5741 32.8629 19.8177 31.5509 19.3696C29.7405 18.7512 27.7868 18.7512 25.9764 19.3696C24.6644 19.8177 22.578 20.5741 19.7182 21.7356C17.9347 22.4606 16.5348 23.0646 15.4603 23.5495C13.477 24.4439 12.1819 26.3582 12.1819 28.5306L12.1837 28.683V37.6281C5.26768 34.6688 0.421875 27.8011 0.421875 19.8024Z" fill="#E66AFF"/>
<path d="M12.1846 32.0984C11.7638 30.4726 11.4406 28.823 11.2167 27.1585H1.86746C1.50892 26.2851 1.21507 25.3864 0.988277 24.4699H10.921C10.7913 22.9175 10.7271 21.3603 10.7283 19.8024C10.7283 18.2072 10.7946 16.6442 10.9219 15.135H0.987381C1.21681 14.2101 1.50957 13.3139 1.86567 12.4463H11.2194C11.6227 9.5211 12.2617 6.86563 13.0817 4.6493C13.5773 3.30946 14.1509 2.09779 14.8016 1.07342C16.2086 0.698803 17.6784 0.478335 19.193 0.431732C18.7861 0.589465 18.3237 0.916582 17.8155 1.50181C17.0358 2.39981 16.2723 3.7746 15.6037 5.58136C14.8921 7.50552 14.3167 9.84015 13.9349 12.4463H25.669C25.2872 9.84015 24.7128 7.50552 24.0003 5.58136C23.3317 3.7746 22.5681 2.39981 21.7884 1.50181C21.2803 0.916582 20.8178 0.589465 20.411 0.431732C21.9255 0.478335 23.3953 0.698803 24.8024 1.07342C25.453 2.09779 26.0266 3.30946 26.5222 4.6493C27.3422 6.86563 27.9803 9.5211 28.3845 12.4463H37.7374C38.0941 13.3139 38.3871 14.2101 38.6166 15.135H28.6821C28.7872 16.3899 28.8497 17.648 28.8694 18.9071C27.9594 18.8958 27.0535 19.0289 26.1852 19.3014C26.1729 17.9102 26.1056 16.52 25.9836 15.1341H13.6204C13.4838 16.6867 13.4159 18.2447 13.4169 19.8033C13.4169 21.4093 13.4868 22.9732 13.6195 24.4699H14.0299C13.4309 24.9926 12.9547 25.6412 12.6355 26.3694C12.3164 27.0976 12.1621 27.8873 12.1837 28.6821V32.0993L12.1846 32.0984Z" fill="white"/>
<path d="M30.6824 21.4658C29.4393 21.0397 28.0897 21.0397 26.8466 21.4658C25.5839 21.8978 23.545 22.6353 20.7309 23.778C19.3317 24.3435 17.9433 24.9351 16.5662 25.5525C15.5033 26.032 14.8715 27.0151 14.8715 28.0825L14.8733 28.1793V38.8926C14.8733 39.2491 15.0149 39.5911 15.267 39.8432C15.5191 40.0953 15.8611 40.2369 16.2176 40.2369C16.5741 40.2369 16.9161 40.0953 17.1682 39.8432C17.4203 39.5911 17.5619 39.2491 17.5619 38.8926V31.0543C18.4384 31.437 19.487 31.8807 20.7309 32.3861C23.545 33.5297 25.5839 34.2673 26.8475 34.6983C28.0906 35.1244 29.4402 35.1244 30.6833 34.6983C31.9461 34.2673 33.985 33.5297 36.7991 32.3861C38.1982 31.8206 39.5867 31.229 40.9638 30.6116C42.0267 30.133 42.6576 29.1499 42.6576 28.0825C42.6576 27.0151 42.0267 26.032 40.9638 25.5525C39.5867 24.9351 38.1982 24.3435 36.7991 23.778C33.985 22.6353 31.9461 21.8978 30.6824 21.4658Z" fill="#643FC9"/>
<path d="M19.8024 34.9107C22.6201 36.0543 24.6778 36.7991 25.9773 37.2427C27.7877 37.8611 29.7414 37.8611 31.5518 37.2427C32.8513 36.7991 34.909 36.0543 37.7266 34.9116C37.7213 36.653 37.6308 37.7974 37.5331 38.5305C37.4691 39.0415 37.2817 39.5293 36.9871 39.9516C36.6924 40.374 36.2994 40.7183 35.8419 40.9548C34.6186 41.5866 32.3234 42.4219 28.7645 42.4219C25.2057 42.4219 22.9096 41.5866 21.6872 40.9548C21.2295 40.7184 20.8363 40.3742 20.5415 39.9518C20.2467 39.5294 20.0592 39.0416 19.9951 38.5305C19.8974 37.7965 19.8069 36.653 19.8024 34.9107Z" fill="#643FC9"/>
</svg>
